<svg xmlns="http://www.w3.org/2000/svg" viewBox="0 0 100 100" width="100%" height="100%">
  <path d="M 0 100 C 0 20, 20 0, 100 0 C 100 80, 80 100, 0 100 Z" fill="#2E8B57" />

  <path d="M 0 100 C 40 60, 60 40, 100 0 C 100 80, 80 100, 0 100 Z" fill="#247548" />

  <g stroke="#4AC27E" stroke-width="1.5" fill="none" stroke-linecap="round" opacity="0.6">
    <path d="M 5 95 C 35 65, 65 35, 95 5" />
    <path d="M 25 75 C 20 55, 10 40" />
    <path d="M 45 55 C 35 35, 20 20" />
    <path d="M 45 55 C 65 65, 80 80" />
    <path d="M 75 25 C 85 35, 90 45" />
  </g>

  <g transform="translate(0, -2)" fill="#FFFFFF">
    <!-- Almohadilla principal trilobulada -->
    <path d="M 33 56
      C 36 51, 42 49, 48 53
      Q 50 55, 52 53
      C 58 49, 64 51, 67 56
      C 71 61, 72 66, 68 71
      C 67 76, 62 77, 57 72
      C 53 76, 47 76, 43 72
      C 38 77, 33 76, 32 71
      C 28 66, 29 61, 33 56 Z" />

    <!-- Dedos -->
    <ellipse cx="28" cy="45" rx="6" ry="8.5" transform="rotate(-38 28 45)" />
    <ellipse cx="39" cy="29" rx="6.5" ry="9" transform="rotate(-14 39 29)" />
    <ellipse cx="59" cy="28" rx="6.5" ry="9" transform="rotate(14 59 28)" />
    <ellipse cx="72" cy="42" rx="6" ry="8.5" transform="rotate(38 72 42)" />

    <!-- Garras curvas -->
    <g transform="translate(23.1 38.7) rotate(-38)">
      <path d="M -1.3 0.5 Q -0.7 -2.5 0 -6 Q 0.7 -2.5 1.3 0.5 Z" />
    </g>
    <g transform="translate(36.9 20.8) rotate(-14)">
      <path d="M -1.3 0.5 Q -0.7 -3 0 -6.5 Q 0.7 -3 1.3 0.5 Z" />
    </g>
    <g transform="translate(61.1 19.8) rotate(14)">
      <path d="M -1.3 0.5 Q -0.7 -3 0 -6.5 Q 0.7 -3 1.3 0.5 Z" />
    </g>
    <g transform="translate(76.9 35.7) rotate(38)">
      <path d="M -1.3 0.5 Q -0.7 -2.5 0 -6 Q 0.7 -2.5 1.3 0.5 Z" />
    </g>
  </g>
</svg>
