<svg xmlns="http://www.w3.org/2000/svg" viewBox="0 0 100 100" width="100%" height="100%">
 <defs>
 <mask id="paw-mask">
 <path d="M 50 10 Q 85 20 85 55 Q 85 85 50 95 Q 15 85 15 55 Q 15 20 50 10 Z" fill="white" />

 <path d="M 50 54 C 60 54 66 61 64 73 C 62 82 56 80 50 76 C 44 80 38 82 36 73 C 34 61 40 54 50 54 Z" fill="black" />

 <ellipse cx="28" cy="46" rx="6" ry="12" transform="rotate(-25 28 46)" fill="black" />
 <ellipse cx="41" cy="30" rx="6" ry="13" transform="rotate(-8 41 30)" fill="black" />
 <ellipse cx="59" cy="30" rx="6" ry="13" transform="rotate(8 59 30)" fill="black" />
 <ellipse cx="72" cy="46" rx="6" ry="12" transform="rotate(25 72 46)" fill="black" />
 </mask>
 </defs>

 <rect width="100" height="100" rx="22" fill="#0A140E" />

 <rect width="100" height="100" fill="#2D6A4F" mask="url(#paw-mask)" />
</svg>
