<svg xmlns="http://www.w3.org/2000/svg" viewBox="0 0 100 100" width="100%" height="100%">
  <!-- Fondo hoja verde -->
  <path d="M 0 100 C 0 20, 20 0, 100 0 C 100 80, 80 100, 0 100 Z" fill="#2E8B57" />
  <path d="M 0 100 C 40 60, 60 40, 100 0 C 100 80, 80 100, 0 100 Z" fill="#247548" />

  <!-- Nervaduras de hoja -->
  <g stroke="#4AC27E" stroke-width="1.5" fill="none" stroke-linecap="round" opacity="0.6">
    <path d="M 5 95 C 35 65, 65 35, 95 5" />
    <path d="M 25 75 C 20 55, 10 40" />
    <path d="M 45 55 C 35 35, 20 20" />
    <path d="M 45 55 C 65 65, 80 80" />
    <path d="M 75 25 C 85 35, 90 45" />
  </g>

  <!-- Huella de jaguar — sin garras (felino retractil) -->
  <g transform="translate(0, -1)" fill="#FFFFFF">
    <!-- Almohadilla central grande y ancha -->
    <path d="M 30 58
      C 33 52, 40 49, 50 49
      C 60 49, 67 52, 70 58
      C 74 64, 74 70, 69 74
      C 66 78, 60 79, 55 75
      C 52 78, 48 78, 45 75
      C 40 79, 34 78, 31 74
      C 26 70, 26 64, 30 58 Z" />

    <!-- 4 dedos redondeados — sin garras -->
    <ellipse cx="27" cy="44" rx="6.5" ry="8" transform="rotate(-35 27 44)" />
    <ellipse cx="40" cy="29" rx="7" ry="8.5" transform="rotate(-12 40 29)" />
    <ellipse cx="60" cy="29" rx="7" ry="8.5" transform="rotate(12 60 29)" />
    <ellipse cx="73" cy="44" rx="6.5" ry="8" transform="rotate(35 73 44)" />
  </g>
</svg>
